<svg width="141" height="23" viewBox="0 0 141 23" fill="none" xmlns="http://www.w3.org/2000/svg">
<g clip-path="url(#clip0_233_484)">
<path d="M38.1026 14.2342C37.7994 15.1958 37.2757 15.9376 36.5314 16.4597C35.7872 16.9817 34.85 17.2565 33.775 17.2565C32.7552 17.2565 31.8731 17.0092 31.1289 16.5421C30.3847 16.075 29.8058 15.3607 29.3924 14.4815C28.9789 13.5748 28.7584 12.5032 28.7584 11.2668C28.7584 10.0304 28.9789 8.95891 29.3924 8.05223C29.8058 7.14554 30.4123 6.45866 31.1565 5.99158C31.9283 5.5245 32.8103 5.27722 33.8026 5.27722C34.8776 5.27722 35.7872 5.5245 36.4487 5.99158C37.1103 6.45866 37.6064 7.17302 37.9372 8.10718L38.0199 8.32698L39.4532 7.66757L39.3981 7.47524C38.5436 5.08489 36.6417 3.87598 33.775 3.87598C32.4795 3.87598 31.3219 4.1782 30.3296 4.78266C29.3373 5.38712 28.5655 6.26633 28.0142 7.36534C27.4905 8.46436 27.2148 9.78317 27.2148 11.2668C27.2148 12.7505 27.4905 14.0693 28.0142 15.1683C28.5655 16.2948 29.3373 17.1466 30.3296 17.751C31.3219 18.3555 32.4795 18.6577 33.8026 18.6577C35.2084 18.6577 36.4487 18.328 37.441 17.6411C38.4609 16.9542 39.1776 15.9926 39.591 14.7837L39.6461 14.5914L38.1853 14.0418L38.1026 14.2342Z" fill="#171717"/>
<path d="M44.4151 17.1745C44.2221 17.202 44.0016 17.2294 43.726 17.2294C43.3125 17.2294 43.0369 17.1195 42.8715 16.8997C42.7061 16.6799 42.5959 16.2403 42.5959 15.6633V2.58508H41.1074V15.7732C41.1074 16.7349 41.3004 17.4767 41.7138 17.9438C42.1273 18.4109 42.7613 18.6581 43.5606 18.6581C44.1394 18.6581 44.6356 18.5482 45.0491 18.3559L45.1593 18.301L45.3798 16.7898L45.0215 16.9547C44.8285 17.0646 44.608 17.147 44.4151 17.1745Z" fill="#171717"/>
<path d="M50.6147 7.22815C49.016 7.22815 47.7481 7.75018 46.866 8.76677C45.984 9.78335 45.543 11.1846 45.543 12.943C45.543 14.7014 46.0116 16.1027 46.9212 17.1193C47.8308 18.1359 49.1263 18.6579 50.7525 18.6579C51.8275 18.6579 52.7371 18.4381 53.5089 17.9985C54.2807 17.5589 54.8871 16.9269 55.3006 16.1302L55.3833 15.9378L54.1153 15.2784L54.0326 15.4982C53.7846 16.0752 53.3711 16.5148 52.8198 16.8445C52.241 17.1742 51.5519 17.3116 50.7801 17.3116C49.6776 17.3116 48.7679 16.9544 48.134 16.295C47.5276 15.6631 47.1417 14.7564 47.059 13.6299H55.4384L55.466 13.4376C55.4935 13.1903 55.5211 12.9705 55.5211 12.7232C55.5211 11.1022 55.0801 9.78335 54.2532 8.76677C53.316 7.75018 52.1307 7.22815 50.6147 7.22815ZM50.6147 8.60192C51.6346 8.60192 52.4339 8.93162 53.0403 9.6185C53.5916 10.2504 53.9224 11.1296 54.0326 12.2561H47.0314C47.1417 11.1296 47.5 10.2504 48.0788 9.6185C48.6852 8.93162 49.5397 8.60192 50.6147 8.60192Z" fill="#171717"/>
<path d="M66.0506 17.3116C65.6922 17.3116 65.2788 17.2017 65.2788 16.4049V10.9648C65.2788 9.75588 64.8929 8.82172 64.1486 8.18979C63.4044 7.55785 62.3846 7.22815 61.1166 7.22815C60.0416 7.22815 59.1045 7.47543 58.3602 7.91503C57.5884 8.38211 57.0372 9.069 56.734 9.94821L56.6788 10.0856L57.8365 10.9373L57.9468 10.69C58.4981 9.26132 59.5455 8.57444 61.1442 8.57444C61.9987 8.57444 62.6602 8.79424 63.1288 9.23385C63.5974 9.67345 63.8179 10.2779 63.8179 11.0747V11.8165L60.7583 12.366C57.9743 12.8606 56.541 14.0146 56.541 15.7455C56.541 16.6797 56.8993 17.394 57.5609 17.916C58.2224 18.4106 59.1045 18.6579 60.207 18.6579C61.0339 18.6579 61.8057 18.493 62.5499 18.1633C63.1012 17.916 63.5698 17.5863 63.9006 17.2017C63.9833 17.6413 64.1762 17.971 64.4243 18.1908C64.7826 18.493 65.2236 18.6579 65.7749 18.6579C66.2435 18.6579 66.6294 18.5755 66.905 18.4106L67.0153 18.3557L67.1255 17.0094L66.7948 17.1742C66.6294 17.2841 66.3813 17.3116 66.0506 17.3116ZM60.3173 17.3116C59.6006 17.3116 59.0218 17.1742 58.6083 16.8995C58.2224 16.6247 58.0295 16.2675 58.0295 15.773C58.0295 15.2509 58.25 14.8388 58.7186 14.4816C59.2147 14.1245 60.0141 13.8222 61.1442 13.6299L63.7903 13.1353V14.8388C63.7903 15.3608 63.6249 15.773 63.2942 16.1302C62.9358 16.5148 62.4948 16.7896 61.9711 16.9819C61.4474 17.2017 60.8685 17.3116 60.3173 17.3116Z" fill="#171717"/>
<path d="M72.754 7.22803C71.8995 7.22803 71.1277 7.44783 70.5213 7.88744C70.1079 8.18966 69.7495 8.54684 69.4739 8.98645L69.3912 7.42035H68.0957V18.4105H69.5842V12.311C69.5842 11.6241 69.722 10.9647 69.9976 10.4152C70.2732 9.86566 70.6316 9.39858 71.0726 9.09635C71.5136 8.79412 71.9822 8.62927 72.4784 8.62927C73.0021 8.62927 73.4155 8.73917 73.6912 8.95897L73.9392 9.1513L74.3527 7.72258L74.2425 7.64016C73.8566 7.3654 73.388 7.22803 72.754 7.22803Z" fill="#171717"/>
<path d="M85.71 14.2342C85.4068 15.1958 84.8831 15.9376 84.1389 16.4597C83.3946 16.9817 82.4575 17.2565 81.3825 17.2565C80.3626 17.2565 79.4806 17.0092 78.7363 16.5421C77.9921 16.075 77.4133 15.3607 76.9998 14.4815C76.5864 13.5748 76.3658 12.5032 76.3658 11.2668C76.3658 10.0304 76.5864 8.95891 76.9998 8.05223C77.4133 7.14554 78.0197 6.45866 78.7639 5.99158C79.5357 5.5245 80.4177 5.27722 81.41 5.27722C82.485 5.27722 83.3946 5.5245 84.0562 5.99158C84.7177 6.45866 85.2139 7.17302 85.5446 8.10718L85.6273 8.32698L87.0606 7.66757L87.0055 7.47524C86.151 5.08489 84.2491 3.87598 81.3825 3.87598C80.087 3.87598 78.9293 4.1782 77.937 4.78266C76.9447 5.38712 76.1729 6.26633 75.6216 7.36534C75.0979 8.46436 74.8223 9.78317 74.8223 11.2668C74.8223 12.7505 75.0979 14.0693 75.6216 15.1683C76.1729 16.2948 76.9447 17.1466 77.937 17.751C78.9293 18.3555 80.087 18.6577 81.41 18.6577C82.8158 18.6577 84.0562 18.328 85.0485 17.6411C86.0683 16.9542 86.785 15.9926 87.1985 14.7837L87.2536 14.5914L85.7927 14.0418L85.71 14.2342Z" fill="#171717"/>
<path d="M94.0082 7.22841C93.071 7.22841 92.2441 7.44822 91.5274 7.86034C91.0313 8.1351 90.6454 8.51975 90.3146 8.95936V2.58508H88.8262V18.4383H90.3146V12.2564C90.3146 11.5146 90.48 10.8552 90.8108 10.2782C91.1415 9.72867 91.5826 9.28906 92.1063 8.98683C92.6575 8.68461 93.264 8.54723 93.8979 8.54723C94.78 8.54723 95.4966 8.79451 95.9928 9.31654C96.5165 9.83857 96.7646 10.6354 96.7646 11.6794V18.4383H98.253V11.3497C98.253 10.0309 97.8671 9.01431 97.0678 8.29995C96.296 7.58559 95.2761 7.22841 94.0082 7.22841Z" fill="#171717"/>
<path d="M105.169 7.22815C103.571 7.22815 102.303 7.75018 101.421 8.76677C100.539 9.78335 100.098 11.1846 100.098 12.943C100.098 14.7014 100.566 16.1027 101.476 17.1193C102.385 18.1359 103.681 18.6579 105.307 18.6579C106.382 18.6579 107.292 18.4381 108.064 17.9985C108.835 17.5589 109.442 16.9269 109.855 16.1302L109.938 15.9378L108.642 15.2784L108.56 15.4982C108.312 16.0752 107.898 16.5148 107.347 16.8445C106.768 17.1742 106.079 17.3116 105.307 17.3116C104.205 17.3116 103.295 16.9544 102.661 16.295C102.055 15.6631 101.669 14.7564 101.586 13.6299H109.966L109.993 13.4376C110.021 13.1903 110.048 12.9705 110.048 12.7232C110.048 11.1022 109.607 9.78335 108.78 8.76677C107.871 7.75018 106.685 7.22815 105.169 7.22815ZM105.169 8.60192C106.189 8.60192 106.989 8.93162 107.595 9.6185C108.146 10.2504 108.477 11.1296 108.587 12.2561H101.586C101.696 11.1296 102.055 10.2504 102.634 9.6185C103.24 8.93162 104.094 8.60192 105.169 8.60192Z" fill="#171717"/>
<path d="M119.614 14.9488C119.476 15.6907 119.145 16.2402 118.539 16.6523C117.96 17.0644 117.216 17.2842 116.361 17.2842C115.176 17.2842 114.294 16.9271 113.66 16.1578C112.998 15.3885 112.695 14.3169 112.695 12.9431C112.695 11.5694 113.026 10.4978 113.687 9.72853C114.349 8.95923 115.231 8.57457 116.416 8.57457C117.216 8.57457 117.877 8.7669 118.401 9.15155C118.924 9.53621 119.31 10.0857 119.531 10.8275L119.614 11.0474L121.019 10.3879L120.964 10.1956C120.633 9.26145 120.055 8.51962 119.283 7.99759C118.511 7.47556 117.546 7.20081 116.471 7.20081C114.845 7.20081 113.55 7.72284 112.64 8.73942C111.73 9.75601 111.262 11.1573 111.262 12.9157C111.262 14.6741 111.73 16.0753 112.64 17.0919C113.55 18.1085 114.845 18.6305 116.471 18.6305C117.601 18.6305 118.594 18.3283 119.393 17.7513C120.22 17.1743 120.771 16.3776 121.074 15.361L121.13 15.1686L119.724 14.6741L119.614 14.9488Z" fill="#171717"/>
<path d="M132.179 7.44822H130.167L124.186 13.218V2.58508H122.697V18.4383H124.186V15.1413L126.446 12.9433L130.415 18.4383H132.234L127.549 11.9267L132.179 7.44822Z" fill="#171717"/>
<path d="M140.036 13.3824C139.402 12.9153 138.382 12.5581 136.894 12.3108C135.709 12.1185 134.882 11.8438 134.441 11.5415C134.027 11.2668 133.807 10.8821 133.807 10.3601C133.807 10.0579 133.917 9.7831 134.137 9.50835C134.385 9.23359 134.716 9.01379 135.13 8.84894C135.571 8.68409 136.039 8.60166 136.591 8.60166C138.217 8.60166 139.182 9.26107 139.54 10.6348L139.623 10.9096L140.918 10.1678L140.891 9.97543C140.615 9.04127 140.119 8.35438 139.402 7.91478C138.685 7.47517 137.748 7.25537 136.618 7.25537C135.791 7.25537 135.047 7.39275 134.413 7.6675C133.752 7.94225 133.255 8.35438 132.869 8.84894C132.511 9.3435 132.318 9.893 132.318 10.4975C132.318 11.4041 132.649 12.091 133.31 12.5856C133.944 13.0527 135.019 13.4373 136.535 13.7121C137.666 13.9044 138.465 14.1792 138.906 14.4539C139.319 14.7287 139.512 15.0858 139.512 15.5254C139.512 16.0749 139.264 16.4871 138.796 16.8168C138.3 17.1465 137.583 17.3388 136.646 17.3388C135.736 17.3388 134.964 17.174 134.358 16.8443C133.752 16.5146 133.366 16.0475 133.173 15.3881L133.09 15.1133L131.85 15.9376L131.905 16.1024C132.208 16.9542 132.814 17.6136 133.641 18.0532C134.468 18.4928 135.433 18.7126 136.535 18.7126C137.886 18.7126 138.961 18.4378 139.76 17.8608C140.587 17.2839 141.001 16.4871 141.001 15.5254C141.028 14.5913 140.698 13.8769 140.036 13.3824Z" fill="#171717"/>
<path fill-rule="evenodd" clip-rule="evenodd" d="M9.7404 9.67447C9.40963 9.34476 8.85835 9.34476 8.52759 9.67447C8.11413 10.0866 8.11413 10.746 8.52759 11.1581L11.1186 13.7408C11.4494 14.0705 12.0006 14.0705 12.3314 13.7408L12.3865 13.6859L12.4417 13.6309L20.5454 5.6356C20.9313 5.25094 20.9313 4.64648 20.5454 4.2893C20.4076 4.12445 20.2974 4.01455 20.1871 3.93213C18.0371 1.45935 14.8397 -0.0792712 11.3115 0.00315474C5.21992 0.113056 0.230863 5.00366 0.0103518 11.0482C-0.265287 17.5874 4.99941 23 11.5321 23C14.2884 23 16.8243 22.0384 18.7813 20.4448C19.2224 20.0876 19.2499 19.4282 18.8365 19.0161C18.4781 18.6589 17.9269 18.6314 17.541 18.9611C15.832 20.3349 13.6269 21.1592 11.2288 21.1042C6.12953 20.9394 1.99495 16.7356 1.91226 11.6252C1.82957 6.26753 6.1571 1.89895 11.5321 1.89895C14.2884 1.89895 16.7968 3.05291 18.5333 4.92124L17.1551 6.26753L17.1275 6.24005C15.7218 4.72891 13.7096 3.79475 11.4769 3.82222C7.34234 3.8497 3.92442 7.17421 3.84173 11.2955C3.73147 15.6091 7.20452 19.1535 11.5321 19.1535C13.2134 19.1535 14.757 18.6314 15.9974 17.7247C16.466 17.395 16.5211 16.7082 16.1077 16.296C15.7769 15.9663 15.2532 15.9114 14.8673 16.1861C13.8474 16.9005 12.607 17.3126 11.2564 17.2577C8.30708 17.1203 5.88146 14.7299 5.74364 11.7901C5.57825 8.49303 8.22439 5.77297 11.5045 5.77297C13.1583 5.77297 14.6468 6.45986 15.7218 7.58634C15.7493 7.61382 15.7493 7.61382 15.7769 7.64129L11.6974 11.6527L9.7404 9.67447Z" fill="#171717"/>
</g>
<defs>
<clipPath id="clip0_233_484">
<rect width="141" height="23" fill="white"/>
</clipPath>
</defs>
</svg>
