<svg width="160" height="25" viewBox="0 0 160 25" fill="none" xmlns="http://www.w3.org/2000/svg">
<g clip-path="url(#clip0_233_423)">
<path fill-rule="evenodd" clip-rule="evenodd" d="M13.5315 0.453133C13.4869 0.391873 13.4305 0.340445 13.3657 0.301959C13.3 0.258379 13.2424 0.220246 13.1941 0.190285C13.1217 0.143981 13.0641 0.10721 13.0199 0.0813345C12.8942 0.0123653 12.7473 -0.00474759 12.6095 0.0335549C12.4718 0.0718574 12.3539 0.162627 12.2804 0.286986C12.2068 0.411345 12.1833 0.559721 12.2147 0.701256C12.2461 0.842791 12.3299 0.96659 12.4488 1.04691L12.6084 1.14496L12.7625 1.2471C12.8235 1.29147 12.8927 1.3228 12.966 1.33922C13.0393 1.35563 13.115 1.35678 13.1888 1.3426C13.2625 1.32842 13.3326 1.2992 13.3949 1.2567C13.4572 1.21421 13.5103 1.15933 13.5511 1.09537C13.592 1.03142 13.6196 0.95972 13.6324 0.884609C13.6451 0.809498 13.6428 0.732537 13.6254 0.658375C13.6081 0.584214 13.5762 0.514393 13.5315 0.453133ZM10.4608 12.8783C10.3271 12.93 10.2183 13.0323 10.157 13.1636V13.1677C9.62521 14.4485 9.51487 15.8696 9.8424 17.2193C10.1699 18.569 10.9178 19.7751 11.9746 20.658C12.0306 20.7085 12.096 20.7469 12.167 20.771C12.2379 20.7951 12.3129 20.8044 12.3875 20.7983C12.4621 20.7922 12.5347 20.7709 12.6009 20.7355C12.6671 20.7002 12.7257 20.6516 12.773 20.5927C12.8202 20.5339 12.8553 20.4659 12.8761 20.3928C12.8969 20.3198 12.9029 20.2433 12.8938 20.1679C12.8847 20.0924 12.8607 20.0196 12.8232 19.9538C12.7858 19.8881 12.7356 19.8307 12.6757 19.7851C11.8038 19.0559 11.1871 18.0601 10.9173 16.946C10.6475 15.8319 10.7391 14.6591 11.1784 13.6022C11.2284 13.466 11.2247 13.3154 11.1681 13.1819C11.1114 13.0484 11.0063 12.9423 10.8745 12.8858C10.7427 12.8292 10.5945 12.8265 10.4608 12.8783ZM17.8145 21.6833C17.944 21.7466 18.0926 21.7564 18.2292 21.7108L18.2252 21.704C18.6101 21.5588 18.9805 21.3764 19.331 21.1592C19.6806 20.9406 20.0083 20.688 20.3096 20.4047C20.363 20.3546 20.4062 20.2942 20.4366 20.2271C20.4671 20.16 20.4842 20.0874 20.4871 20.0136C20.49 19.9397 20.4785 19.866 20.4533 19.7967C20.4281 19.7273 20.3898 19.6637 20.3404 19.6094C20.291 19.5551 20.2316 19.5113 20.1655 19.4803C20.0995 19.4494 20.0281 19.4319 19.9554 19.429C19.8827 19.4261 19.8101 19.4378 19.7419 19.4634C19.6736 19.4889 19.611 19.5279 19.5576 19.5781C19.3099 19.8118 19.0406 20.0207 18.7533 20.2018C18.4643 20.3821 18.1585 20.5331 17.8405 20.6526C17.7079 20.709 17.6019 20.8154 17.5448 20.9494C17.4878 21.0834 17.4839 21.2347 17.5342 21.3715C17.5845 21.5083 17.6849 21.6201 17.8145 21.6833ZM23.1436 13.4496C23.2595 13.3574 23.3346 13.2222 23.3524 13.0737L23.351 13.0833C23.3604 13.0097 23.3738 12.8926 23.3912 12.7374C23.4073 12.5857 23.4194 12.47 23.4274 12.3901C23.4344 12.2447 23.3858 12.1022 23.2918 11.9924C23.1977 11.8826 23.0655 11.814 22.9228 11.801C22.7801 11.7879 22.638 11.8315 22.5262 11.9225C22.4143 12.0135 22.3415 12.145 22.3229 12.2893C22.3142 12.3826 22.3061 12.4618 22.2997 12.5248L22.2996 12.526L22.2995 12.5263C22.2961 12.5601 22.2931 12.5892 22.2907 12.6134C22.284 12.6829 22.2706 12.7905 22.2505 12.9376C22.2328 13.086 22.2737 13.2355 22.3645 13.3533C22.4552 13.471 22.5883 13.5473 22.7344 13.5654C22.8805 13.5834 23.0277 13.5418 23.1436 13.4496ZM14.379 6.23757C14.3345 6.3766 14.3447 6.52776 14.4076 6.65929L14.5081 6.84996C14.5309 6.89626 14.5617 6.96163 14.5992 7.04334C14.6661 7.17148 14.7789 7.26853 14.9144 7.31432C15.0498 7.36011 15.1974 7.35113 15.3264 7.28924C15.4555 7.22735 15.5562 7.11732 15.6075 6.98199C15.6588 6.84667 15.6568 6.69647 15.6019 6.5626C15.5764 6.50676 15.5416 6.43458 15.4973 6.3447L15.3888 6.12816C15.3164 6.0018 15.1986 5.90886 15.0602 5.86887C14.9217 5.82888 14.7734 5.84495 14.6464 5.9137C14.5194 5.98245 14.4236 6.09854 14.379 6.23757ZM15.3542 8.6801C15.2724 8.8041 15.2424 8.95604 15.2708 9.1025V9.10523C15.6597 11.0663 15.3793 13.1035 14.4759 14.881C14.3033 15.2866 14.2892 15.7439 14.4365 16.1598C14.5838 16.5756 14.8813 16.9189 15.2688 17.1199C15.6562 17.3209 16.1044 17.3645 16.5224 17.2418C16.9403 17.1191 17.2965 16.8393 17.5187 16.4594C17.9374 15.6331 18.263 14.7614 18.4892 13.8609C18.5106 13.7219 18.4799 13.5797 18.4034 13.4625C18.3268 13.3452 18.2099 13.2612 18.0755 13.2271C17.9411 13.193 17.799 13.2111 17.6772 13.278C17.5553 13.3449 17.4625 13.4556 17.4169 13.5885C17.3146 13.9958 17.1897 14.3968 17.0429 14.7897C16.8958 15.1861 16.7261 15.5736 16.5349 15.95C16.4993 16.0219 16.4499 16.0859 16.3895 16.138C16.3292 16.1902 16.2592 16.2295 16.1837 16.2537C16.07 16.2904 15.9482 16.292 15.8336 16.2585C15.719 16.2249 15.6167 16.1577 15.5397 16.0653C15.4626 15.9729 15.4141 15.8593 15.4004 15.739C15.3867 15.6186 15.4083 15.4968 15.4625 15.3889C16.4776 13.3865 16.7933 11.0932 16.3579 8.8846C16.3295 8.73814 16.2449 8.60915 16.1229 8.52602C16.0008 8.44289 15.8513 8.41242 15.7071 8.44131C15.563 8.47021 15.436 8.5561 15.3542 8.6801ZM5.0204 21.4358C5.07081 21.2989 5.06697 21.1475 5.00968 21.0135H5.00699C4.5487 20.0375 4.21707 19.0052 4.02042 17.9425C4.01285 17.8649 3.98951 17.7898 3.95187 17.7219C3.91423 17.654 3.86312 17.5948 3.80177 17.5481C3.74043 17.5013 3.67019 17.468 3.59551 17.4503C3.52083 17.4325 3.44334 17.4308 3.36795 17.4451C3.29256 17.4594 3.22091 17.4894 3.15755 17.5333C3.0942 17.5772 3.04051 17.634 2.9999 17.7001C2.95929 17.7662 2.93264 17.8402 2.92164 17.9173C2.91064 17.9944 2.91553 18.073 2.936 18.1481C3.15036 19.307 3.51078 20.433 4.00836 21.4983C4.07474 21.628 4.18805 21.7263 4.32443 21.7727C4.4608 21.8191 4.60958 21.8099 4.73941 21.7471C4.86924 21.6842 4.96998 21.5726 5.0204 21.4358ZM3.65319 16.0686C3.75701 15.9631 3.81534 15.82 3.81534 15.6708V15.6736C3.8155 15.0245 3.86614 14.3765 3.96681 13.7356C4.06631 13.0953 4.21603 12.4641 4.41452 11.8481C4.4374 11.7778 4.44643 11.7036 4.4411 11.6298C4.43577 11.5559 4.41618 11.4839 4.38344 11.4177C4.3507 11.3516 4.30547 11.2927 4.25031 11.2443C4.19515 11.1959 4.13116 11.159 4.06198 11.1358C3.9928 11.1125 3.91979 11.1034 3.84712 11.1088C3.77445 11.1142 3.70354 11.1341 3.63844 11.1674C3.50696 11.2345 3.40714 11.352 3.36092 11.494C2.92576 12.842 2.70538 14.2521 2.70812 15.6708C2.70812 15.82 2.76645 15.9631 2.87027 16.0686C2.97409 16.174 3.1149 16.2333 3.26173 16.2333C3.40856 16.2333 3.54937 16.174 3.65319 16.0686ZM16.0274 23.3923C15.9608 23.3626 15.8891 23.3466 15.8164 23.345C15.7841 23.344 15.7514 23.3421 15.7183 23.3402C15.6662 23.3372 15.6131 23.3341 15.559 23.3341L15.3003 23.3137C15.1572 23.3066 15.0169 23.356 14.9088 23.4515C14.8008 23.5471 14.7333 23.6814 14.7204 23.8264C14.7076 23.9714 14.7505 24.1158 14.8401 24.2294C14.9297 24.343 15.059 24.417 15.2011 24.4359L15.2442 24.4404C15.3248 24.4489 15.4085 24.4577 15.496 24.4577C15.5943 24.4659 15.6935 24.4699 15.7936 24.4699C15.8663 24.4715 15.9386 24.4584 16.0063 24.4316C16.074 24.4047 16.1359 24.3645 16.1884 24.3134C16.2408 24.2622 16.2829 24.2011 16.3121 24.1334C16.3413 24.0658 16.3571 23.9929 16.3586 23.9191C16.3601 23.8452 16.3472 23.7718 16.3208 23.7029C16.2944 23.6341 16.2548 23.5713 16.2045 23.518C16.1541 23.4647 16.094 23.4219 16.0274 23.3923ZM20.0991 8.89377C20.0084 9.01152 19.9674 9.16106 19.9852 9.30951V9.30542C20.2052 11.2473 20.0062 13.2145 19.4021 15.0703C19.3614 15.2107 19.3761 15.3617 19.443 15.4914C19.51 15.621 19.6239 15.7191 19.7608 15.7649C19.8976 15.8107 20.0467 15.8007 20.1763 15.7369C20.306 15.673 20.4062 15.5605 20.4557 15.423C20.7824 14.421 21.0004 13.3857 21.1058 12.3356C21.2122 11.2839 21.2059 10.2236 21.087 9.17332C21.0692 9.02487 20.9942 8.88968 20.8783 8.79748C20.7624 8.70528 20.6152 8.66362 20.4691 8.68168C20.323 8.69974 20.1899 8.77603 20.0991 8.89377ZM14.1027 4.49958C14.1118 4.35388 14.0649 4.21026 13.9719 4.09896C13.5804 3.6651 13.1516 3.26767 12.6904 2.9114C11.937 2.32681 11.1045 1.85574 10.2187 1.51275C9.87946 1.38088 9.53305 1.26902 9.18115 1.17773C9.03895 1.14035 8.88795 1.16189 8.76138 1.23762C8.63481 1.31334 8.54303 1.43705 8.50624 1.58153C8.46944 1.72601 8.49064 1.87942 8.56518 2.00801C8.63971 2.13661 8.76148 2.22985 8.90368 2.26724C9.21587 2.34971 9.5233 2.44974 9.82457 2.56685C10.1276 2.68355 10.4239 2.81768 10.7119 2.9686C11.171 3.20773 11.6083 3.48754 12.0189 3.8048C12.4272 4.12098 12.8067 4.47376 13.1529 4.85889C13.2536 4.96306 13.3901 5.02349 13.5338 5.02746C13.6774 5.03143 13.817 4.97863 13.9231 4.88018C14.0292 4.78172 14.0936 4.64529 14.1027 4.49958ZM5.81794 5.81482C5.69724 5.73858 5.55236 5.7123 5.41315 5.74139V5.73458C4.93445 5.86282 4.47629 6.06002 4.0526 6.32019C3.62878 6.57996 3.24451 6.90111 2.91187 7.2735C2.85883 7.32704 2.81701 7.39094 2.78894 7.46135C2.76086 7.53176 2.74712 7.60722 2.74854 7.68317C2.74995 7.75912 2.7665 7.834 2.79717 7.90327C2.82785 7.97255 2.87202 8.0348 2.92702 8.08626C2.98202 8.13772 3.04671 8.17733 3.11719 8.2027C3.18767 8.22806 3.26247 8.23866 3.33709 8.23385C3.41171 8.22904 3.4846 8.20892 3.55136 8.17471C3.61812 8.1405 3.67737 8.0929 3.72553 8.03479C4.25396 7.44972 4.93714 7.03175 5.6933 6.83089C5.82873 6.78708 5.94244 6.69216 6.01101 6.56569C6.07959 6.43922 6.09779 6.29084 6.06187 6.15113C6.02594 6.01143 5.93863 5.89105 5.81794 5.81482ZM1.13372 19.9133C1.06416 20.0412 1.04615 20.1915 1.0835 20.3326C1.09482 20.3712 1.11404 20.4316 1.14055 20.5148L1.16661 20.5968L1.2524 20.8623C1.30415 20.9991 1.40618 21.1101 1.53696 21.172C1.66774 21.2338 1.81705 21.2416 1.95339 21.1937C2.08972 21.1458 2.20241 21.046 2.2677 20.9153C2.33298 20.7847 2.34575 20.6333 2.30331 20.4933L2.30316 20.4928L2.30298 20.4923L2.30294 20.4922L2.30287 20.492L2.30282 20.4918L2.30266 20.4914C2.25613 20.3563 2.22821 20.2752 2.2202 20.2495L2.1438 20.0016C2.09675 19.8636 1.99879 19.7495 1.87058 19.6833C1.74236 19.6172 1.59388 19.6043 1.45643 19.6472C1.31898 19.6901 1.20329 19.7855 1.13372 19.9133ZM6.8149 23.8032C6.82734 23.6545 6.7811 23.5068 6.68636 23.3926V23.3953C6.59789 23.2873 6.50138 23.1661 6.39682 23.0317C6.29227 22.8974 6.19978 22.7721 6.11935 22.6558C6.03385 22.5345 5.9044 22.4526 5.75948 22.4282C5.61456 22.4038 5.46603 22.4389 5.34658 22.5258C5.22713 22.6127 5.14654 22.7442 5.12253 22.8914C5.09852 23.0387 5.13307 23.1896 5.21857 23.3109C5.24198 23.3433 5.26469 23.375 5.28695 23.4061L5.28731 23.4066C5.36686 23.5176 5.44066 23.6206 5.52017 23.7195C5.56011 23.7691 5.60067 23.8203 5.64192 23.8723L5.6428 23.8734L5.64366 23.8745L5.64374 23.8745L5.64382 23.8747L5.64396 23.8748C5.70729 23.9547 5.77227 24.0366 5.8392 24.1185C5.93394 24.2326 6.06943 24.3039 6.21586 24.3165C6.36229 24.3292 6.50767 24.2822 6.62001 24.1859C6.73235 24.0897 6.80245 23.952 6.8149 23.8032ZM18.8437 11.5593C18.8359 11.7083 18.7701 11.848 18.6609 11.9478C18.5517 12.0475 18.4079 12.0991 18.2613 12.0911C18.1146 12.0832 17.9771 12.0164 17.8789 11.9054C17.7808 11.7944 17.73 11.6484 17.7378 11.4994C17.8205 9.88267 17.5585 8.2669 16.9697 6.76258C16.3809 5.25827 15.4792 3.90091 14.3264 2.78336C14.2709 2.73309 14.2259 2.672 14.1941 2.60372C14.1623 2.53544 14.1443 2.46136 14.1413 2.38588C14.1382 2.31041 14.1501 2.23507 14.1762 2.16435C14.2023 2.09363 14.2422 2.02897 14.2934 1.9742C14.3446 1.91943 14.4061 1.87568 14.4743 1.84554C14.5425 1.8154 14.6159 1.79948 14.6903 1.79874C14.7646 1.798 14.8383 1.81244 14.9071 1.84121C14.9758 1.86999 15.0382 1.9125 15.0905 1.96623C16.3606 3.1946 17.3538 4.68791 18.0017 6.34346C18.6496 7.999 18.9369 9.77748 18.8437 11.5566V11.5593ZM13.5367 21.5578C13.5991 21.6929 13.7117 21.7973 13.8498 21.8481H13.8485C14.1541 21.9605 14.4678 22.0488 14.7868 22.1123C15.1056 22.1755 15.4287 22.2142 15.7533 22.228C15.9001 22.2336 16.0431 22.1797 16.1508 22.0782C16.2585 21.9767 16.3221 21.8359 16.3276 21.6867C16.3331 21.5375 16.2801 21.3922 16.1802 21.2828C16.0803 21.1733 15.9416 21.1087 15.7948 21.1031C15.2591 21.0825 14.73 20.9768 14.2265 20.7899C14.0884 20.7391 13.9361 20.7462 13.8031 20.8095C13.6701 20.8729 13.5673 20.9873 13.5174 21.1276C13.4674 21.268 13.4744 21.4227 13.5367 21.5578ZM5.1608 10.2263C5.09379 10.3592 4.97755 10.4597 4.83765 10.5055C4.69776 10.5513 4.54567 10.5389 4.41484 10.4708C4.28401 10.4027 4.18517 10.2846 4.14004 10.1425C4.09492 10.0003 4.10722 9.8458 4.17423 9.71288C4.52539 9.03121 5.1275 8.51819 5.84935 8.2856C6.5712 8.05301 7.35427 8.11971 8.02793 8.47118C8.70158 8.82264 9.2112 9.43038 9.44573 10.1619C9.68026 10.8935 9.62069 11.6896 9.28 12.3767C9.06379 12.8046 8.887 13.2518 8.75186 13.7127C8.61934 14.1721 8.52958 14.6431 8.48377 15.1195C8.46846 15.2672 8.39627 15.4028 8.28295 15.4966C8.16964 15.5904 8.0244 15.6349 7.87892 15.6204C7.73345 15.6058 7.59955 15.5334 7.50644 15.4189C7.41333 15.3044 7.36857 15.1571 7.38192 15.0092C7.43472 14.4621 7.53839 13.9213 7.69157 13.394C7.84468 12.8654 8.04618 12.3524 8.29343 11.8619C8.40636 11.6523 8.47682 11.4218 8.50064 11.1841C8.52447 10.9463 8.50119 10.7061 8.43217 10.4777C8.36315 10.2492 8.24978 10.0371 8.09877 9.85388C7.94776 9.67065 7.76215 9.52002 7.55291 9.41086C7.34366 9.3017 7.11502 9.23622 6.88046 9.2183C6.64591 9.20038 6.41019 9.23037 6.18723 9.3065C5.96427 9.38263 5.75857 9.50337 5.58228 9.66158C5.40599 9.81979 5.26268 10.0123 5.1608 10.2277V10.2263ZM12.0509 16.2811C12.0297 16.2065 12.024 16.1282 12.0342 16.0511C12.0443 15.9741 12.07 15.9001 12.1097 15.8337C12.1494 15.7673 12.2022 15.7099 12.2647 15.6653C12.3273 15.6206 12.3983 15.5896 12.4733 15.5742C12.5483 15.5589 12.6255 15.5594 12.7003 15.5759C12.775 15.5924 12.8456 15.6244 12.9075 15.6699C12.9695 15.7155 13.0214 15.7736 13.0602 15.8406C13.0989 15.9076 13.1236 15.982 13.1326 16.0591C13.2205 16.4953 13.4037 16.9058 13.6688 17.2603C13.9674 17.6593 14.3606 17.9749 14.8118 18.1776C15.2629 18.3803 15.7573 18.4636 16.2487 18.4197C16.7401 18.3758 17.2125 18.2061 17.6219 17.9264C18.0312 17.6467 18.3642 17.2662 18.5896 16.8204C18.6228 16.7547 18.6684 16.6963 18.7238 16.6484C18.7792 16.6006 18.8433 16.5644 18.9125 16.5417C18.9818 16.5191 19.0547 16.5105 19.1271 16.5165C19.1996 16.5225 19.2702 16.5429 19.3349 16.5767C19.3996 16.6104 19.4571 16.6567 19.5042 16.713C19.5512 16.7693 19.5869 16.8345 19.6092 16.9048C19.6315 16.9751 19.6399 17.0492 19.634 17.1228C19.6281 17.1964 19.608 17.2681 19.5748 17.3339C19.2649 17.9503 18.8059 18.4766 18.2409 18.8634C17.676 19.2502 17.0235 19.4848 16.3449 19.5452C15.6662 19.6057 14.9835 19.49 14.3609 19.2089C13.7383 18.9279 13.1962 18.4907 12.7855 17.9385C12.4213 17.4487 12.1694 16.8825 12.0482 16.2811H12.0509ZM0.723301 7.93615C0.86307 7.89043 0.979239 7.79018 1.04625 7.65744V7.66153C1.11462 7.5267 1.187 7.39732 1.25804 7.27611C1.32909 7.15491 1.40817 7.03234 1.49262 6.90841C1.5767 6.78596 1.60946 6.6346 1.58369 6.48762C1.55793 6.34063 1.47574 6.21007 1.35523 6.12465C1.23471 6.03922 1.08573 6.00594 0.941056 6.03212C0.796385 6.0583 0.667876 6.14179 0.583798 6.26424C0.489966 6.40043 0.396135 6.54342 0.307665 6.69323C0.219196 6.84304 0.136088 6.9942 0.0610227 7.14401C-0.00599078 7.27675 -0.0183592 7.4311 0.0266383 7.5731C0.0716359 7.71511 0.170313 7.83313 0.300963 7.90122C0.431613 7.9693 0.583532 7.98187 0.723301 7.93615ZM0.510677 13.4823C0.528452 13.3342 0.603402 13.1994 0.719038 13.1074C0.834674 13.0155 0.981524 12.974 1.12728 12.9921C1.27304 13.0101 1.40577 13.0863 1.49627 13.2037C1.58676 13.3212 1.62762 13.4704 1.60984 13.6185C1.53099 14.2508 1.49337 14.8878 1.49725 15.5251C1.50111 16.163 1.54589 16.7999 1.63129 17.4318C1.65138 17.5799 1.61274 17.73 1.52388 17.8491C1.43501 17.9683 1.3032 18.0467 1.15744 18.0671C1.01168 18.0875 0.863916 18.0482 0.746646 17.958C0.629376 17.8677 0.55221 17.7338 0.532124 17.5857C0.350933 16.2245 0.343724 14.8453 0.510677 13.4823ZM13.705 22.957C13.6436 22.8214 13.5318 22.7161 13.394 22.6642V22.6615C13.2573 22.6111 13.1179 22.5512 12.9677 22.4858C12.8176 22.4205 12.6836 22.3537 12.5495 22.2843C11.6144 21.7971 10.79 21.1164 10.1293 20.2861C9.46857 19.4558 8.98619 18.4943 8.71315 17.4632C8.67562 17.3257 8.64747 17.2072 8.62603 17.1091C8.59922 16.9879 8.57643 16.8681 8.55632 16.751C8.5473 16.6753 8.52324 16.6022 8.48558 16.5363C8.44793 16.4704 8.39748 16.4129 8.33729 16.3674C8.2771 16.3219 8.20844 16.2892 8.13546 16.2715C8.06249 16.2538 7.98672 16.2513 7.91278 16.2643C7.83884 16.2772 7.76825 16.3053 7.70532 16.3468C7.64238 16.3883 7.58841 16.4424 7.54667 16.5057C7.50493 16.5691 7.47631 16.6404 7.46253 16.7153C7.44876 16.7902 7.45012 16.8672 7.46654 16.9416C7.48933 17.0778 7.51613 17.214 7.54428 17.3502C7.57779 17.5095 7.60997 17.6443 7.6408 17.7587C7.95414 18.9418 8.50782 20.0451 9.26621 20.9976C10.0246 21.9502 10.9709 22.7308 12.0442 23.2893C12.2064 23.3738 12.3659 23.4487 12.5214 23.5195C12.6769 23.5903 12.8391 23.657 13.0093 23.7197C13.1471 23.7715 13.2994 23.7656 13.4329 23.7033C13.5664 23.641 13.6701 23.5273 13.7211 23.3874C13.7721 23.2474 13.7663 23.0926 13.705 22.957ZM10.176 5.15037C10.0515 5.07018 9.96356 4.94306 9.93138 4.79697C9.8992 4.65088 9.92546 4.49779 10.0044 4.37137C10.0833 4.24496 10.2084 4.15557 10.3522 4.12288C10.496 4.09019 10.6467 4.11687 10.7711 4.19705C12.3472 5.21833 13.4914 6.80031 13.9801 8.63347C14.4687 10.4666 14.2666 12.4191 13.4131 14.1088C13.3461 14.2417 13.2299 14.3421 13.09 14.388C12.9501 14.4338 12.798 14.4213 12.6672 14.3533C12.5364 14.2852 12.4375 14.1671 12.3924 14.0249C12.3473 13.8828 12.3596 13.7283 12.4266 13.5954C13.1538 12.156 13.3261 10.4927 12.9098 8.93098C12.4936 7.3693 11.5187 6.02164 10.176 5.15173V5.15037ZM2.70421 5.76828C2.84888 5.79599 2.99846 5.76417 3.12004 5.67984V5.67711C3.86593 5.1586 4.71154 4.80663 5.6011 4.64442C6.49066 4.48221 7.40396 4.51344 8.28077 4.73605C8.35273 4.75889 8.42853 4.76656 8.50351 4.75858C8.5785 4.7506 8.65108 4.72714 8.71683 4.68964C8.78257 4.65215 8.84008 4.6014 8.88584 4.54052C8.93159 4.47964 8.96462 4.40991 8.98291 4.3356C9.00119 4.26129 9.00435 4.18396 8.99218 4.10837C8.98 4.03278 8.95276 3.9605 8.91212 3.89599C8.87148 3.83147 8.81829 3.77607 8.75583 3.73318C8.69337 3.69028 8.62293 3.66081 8.54886 3.64655C7.52022 3.38605 6.44897 3.34954 5.40546 3.53942C4.36195 3.72931 3.36976 4.14128 2.49405 4.74831C2.37247 4.83265 2.28884 4.9626 2.26157 5.10959C2.23429 5.25657 2.2656 5.40854 2.34861 5.53207C2.43163 5.6556 2.55954 5.74057 2.70421 5.76828ZM18.1005 3.94908C18.0239 3.82122 18.0005 3.66768 18.0353 3.52222C18.0701 3.37677 18.1603 3.25133 18.2862 3.17349C18.412 3.09566 18.5632 3.0718 18.7063 3.10717C18.8495 3.14255 18.973 3.23425 19.0496 3.36211C19.3754 3.9054 19.6665 4.46949 19.9209 5.05084C20.1769 5.63138 20.3954 6.22824 20.575 6.83763C20.5983 6.90922 20.6072 6.98484 20.6012 7.06C20.5952 7.13516 20.5745 7.20834 20.5402 7.2752C20.5059 7.34206 20.4587 7.40125 20.4015 7.44927C20.3442 7.49728 20.2781 7.53315 20.207 7.55474C20.1359 7.57633 20.0612 7.58321 19.9875 7.57497C19.9137 7.56674 19.8423 7.54355 19.7775 7.50678C19.7127 7.47001 19.6558 7.42041 19.6102 7.36091C19.5646 7.30141 19.5312 7.23323 19.512 7.16039C19.3468 6.59621 19.1457 6.04349 18.9102 5.50571C18.674 4.96944 18.4036 4.44945 18.1005 3.94908ZM1.82348 9.33055C1.77099 9.38447 1.72975 9.4486 1.70222 9.51908V9.52045C1.58292 9.79282 1.47434 10.0652 1.37649 10.3376C1.27908 10.6063 1.1857 10.8828 1.09633 11.167C1.06458 11.2398 1.04839 11.3187 1.04884 11.3984C1.04929 11.4781 1.06636 11.5568 1.09894 11.6293C1.13152 11.7019 1.17886 11.7665 1.23784 11.8191C1.29682 11.8716 1.36609 11.9109 1.44109 11.9343C1.5161 11.9576 1.59512 11.9646 1.67296 11.9546C1.7508 11.9447 1.82568 11.9181 1.89266 11.8766C1.95964 11.8351 2.01721 11.7797 2.06155 11.7139C2.1059 11.6482 2.13602 11.5736 2.14993 11.4952C2.22767 11.2459 2.31346 10.9899 2.40997 10.7284C2.51006 10.4679 2.61238 10.2164 2.71694 9.97395C2.74963 9.90578 2.76844 9.8316 2.77226 9.75587C2.77608 9.68013 2.76482 9.60439 2.73916 9.53318C2.7135 9.46197 2.67396 9.39674 2.62291 9.34142C2.57186 9.28609 2.51035 9.2418 2.44206 9.21119C2.37377 9.18057 2.3001 9.16427 2.22547 9.16326C2.15083 9.16224 2.07676 9.17654 2.00769 9.20528C1.93862 9.23403 1.87596 9.27664 1.82348 9.33055ZM7.04265 1.06982C7.11552 1.07197 7.18727 1.08868 7.25379 1.119C7.32031 1.14931 7.3803 1.19265 7.43034 1.24652C7.48038 1.30039 7.51948 1.36375 7.54542 1.43298C7.57136 1.5022 7.58362 1.57594 7.58151 1.64998C7.5794 1.72403 7.56295 1.79692 7.53311 1.8645C7.50327 1.93209 7.46062 1.99304 7.40759 2.04388C7.35457 2.09471 7.29221 2.13444 7.22407 2.1608C7.15593 2.18715 7.08335 2.19961 7.01048 2.19746H6.83488H6.66062C6.51344 2.19908 6.37165 2.14124 6.26645 2.03665C6.16124 1.93207 6.10124 1.7893 6.09964 1.63977C6.09804 1.49024 6.15498 1.34618 6.25792 1.2393C6.36086 1.13241 6.50138 1.07145 6.64856 1.06982H6.84426H7.04265ZM21.6286 18.7496C21.6834 18.701 21.7282 18.642 21.7605 18.5758V18.5799C21.9911 18.1096 22.1957 17.6361 22.3744 17.1595C22.5585 16.6656 22.7216 16.1766 22.8637 15.6927C22.8834 15.6212 22.8891 15.5464 22.8803 15.4726C22.8716 15.3989 22.8487 15.3276 22.8128 15.2628C22.777 15.1981 22.7289 15.1412 22.6714 15.0953C22.6139 15.0494 22.5481 15.0155 22.4777 14.9954C22.4072 14.9754 22.3336 14.9697 22.261 14.9785C22.1884 14.9874 22.1183 15.0107 22.0545 15.0471C21.9908 15.0836 21.9348 15.1324 21.8896 15.1908C21.8444 15.2492 21.8111 15.3161 21.7913 15.3877C21.6627 15.8471 21.513 16.301 21.3423 16.7495C21.1716 17.198 20.9804 17.6402 20.7686 18.076C20.7363 18.1422 20.7171 18.2142 20.7122 18.2879C20.7073 18.3616 20.7167 18.4355 20.7399 18.5055C20.7631 18.5755 20.7997 18.6402 20.8475 18.6958C20.8953 18.7515 20.9534 18.797 21.0186 18.8298C21.0837 18.8626 21.1546 18.8821 21.2271 18.8871C21.2996 18.8921 21.3724 18.8825 21.4413 18.8589C21.5102 18.8353 21.5739 18.7982 21.6286 18.7496ZM7.47856 6.96855C7.33333 6.9411 7.20479 6.85616 7.1212 6.73241C7.03762 6.60867 7.00584 6.45626 7.03286 6.30872C7.05988 6.16117 7.14348 6.03057 7.26528 5.94565C7.38707 5.86073 7.53708 5.82844 7.68231 5.85589C7.9288 5.90286 8.17161 5.96795 8.40883 6.05064C8.6457 6.13361 8.8764 6.23373 9.09916 6.35025C9.9934 6.81717 10.7349 7.53798 11.2334 8.42505C11.732 9.31212 11.9661 10.3272 11.9074 11.347C11.8936 11.4921 11.825 11.6262 11.716 11.721C11.607 11.8158 11.4661 11.8641 11.3228 11.8556C11.1796 11.8472 11.0451 11.7827 10.9477 11.6756C10.8502 11.5686 10.7974 11.4274 10.8002 11.2816C10.8527 10.3776 10.6118 9.48096 10.1144 8.7294C9.61709 7.97784 8.89077 7.41284 8.04691 7.12108C7.86164 7.05533 7.67162 7.00433 7.47856 6.96855ZM6.56837 10.5067C6.4281 10.5519 6.31125 10.6519 6.24353 10.7846C5.10446 13.0366 4.75319 15.6152 5.24745 18.0968C5.74171 20.5784 7.05209 22.8154 8.9633 24.4402C9.07635 24.5361 9.22227 24.5824 9.36895 24.569C9.51563 24.5556 9.65106 24.4836 9.74545 24.3687C9.83984 24.2538 9.88545 24.1056 9.87225 23.9566C9.85905 23.8075 9.78813 23.6699 9.67508 23.574C7.95668 22.1148 6.77827 20.1048 6.33366 17.8747C5.88905 15.6446 6.20472 13.3271 7.22876 11.3035C7.29648 11.1708 7.30953 11.0161 7.26504 10.8736C7.22054 10.7311 7.12215 10.6124 6.9915 10.5436C6.86085 10.4748 6.70865 10.4615 6.56837 10.5067ZM28.0391 20.3719V4.75665H37.8619V6.99285H30.3715V11.5987H36.7601V13.7042H30.3715V20.3774L28.0391 20.3719ZM39.3555 4.75671V6.99292H41.5565V4.75671H39.3555ZM39.3555 9.25227V20.372H41.5565V9.25227H39.3555ZM43.4629 20.372V9.25228H45.6652V10.4371C46.3614 9.56188 47.3189 9.12427 48.5378 9.12427C49.3805 9.13496 50.1945 9.43657 50.8461 9.97953L49.2483 11.9066C48.8389 11.5671 48.3301 11.3755 47.8019 11.3618C47.2593 11.3409 46.7301 11.5364 46.3274 11.9066C45.8806 12.3297 45.6572 12.9198 45.6572 13.677V20.3666L43.4629 20.372ZM51.7763 16.9728L50.2441 18.5076C51.64 19.8386 53.245 20.5059 55.059 20.5096C56.3691 20.5096 57.4517 20.2022 58.3069 19.5876C58.7126 19.3161 59.0436 18.944 59.2685 18.5066C59.4934 18.0691 59.6049 17.5806 59.5924 17.0872C59.5924 15.0262 58.5344 13.9149 56.4182 13.7533L54.606 13.6171C53.6417 13.5445 53.1596 13.1936 53.1596 12.5644C53.1596 11.6728 53.7852 11.227 55.0362 11.227C56.0282 11.227 57.0067 11.5702 57.9718 12.2566L59.3257 10.6373C58.1497 9.62862 56.7198 9.12427 55.0362 9.12427C53.8254 9.12427 52.8531 9.41072 52.1194 9.98361C51.342 10.5983 50.9532 11.4535 50.9532 12.5494C50.9532 13.4709 51.2553 14.2163 51.8594 14.7856C52.4206 15.3095 53.169 15.6168 54.1046 15.7076L56.0483 15.8833C56.9419 15.9668 57.3887 16.33 57.3887 16.9728C57.3887 17.9234 56.6694 18.3987 55.2306 18.3987C54.5902 18.4079 53.9545 18.2865 53.3611 18.0416C52.7678 17.7967 52.2288 17.4332 51.7763 16.9728ZM61.5126 9.25221V5.87476H63.7136V9.25221H65.3115V10.9627H63.7136V17.4317C63.7136 17.9873 63.9737 18.2651 64.4911 18.2651H65.3115V20.3706H64.168C63.3754 20.3706 62.7347 20.1295 62.2458 19.6474C61.757 19.1653 61.5126 18.4926 61.5126 17.6291V10.9559H60.4121V9.25221H61.5126ZM79.7426 16.887L80.9289 20.372H83.3967L77.8056 4.75671H75.8633L70.2656 20.3747H72.7267L73.9143 16.887H79.7426ZM79.0724 14.7788H74.5832L76.8017 7.95849H76.8499L79.0724 14.7788ZM90.3679 20.372V19.209C90.0174 19.6202 89.583 19.9491 89.0948 20.1728C88.6066 20.3964 88.0764 20.5095 87.5409 20.5041C86.0432 20.5041 84.9637 19.8604 84.3024 18.573C83.9861 17.9737 83.8279 16.7167 83.8279 14.8019C83.8279 13.6761 83.8493 12.9448 83.8922 12.6079C83.9816 11.7463 84.2189 11.0654 84.604 10.5651C85.3386 9.60454 86.3176 9.12425 87.5409 9.12425C88.5177 9.12425 89.46 9.56278 90.3679 10.4398V4.75671H92.5703V20.372H90.3679ZM88.2098 11.3577C87.2894 11.3577 86.6705 11.7159 86.3533 12.4323C86.1379 12.9162 86.0298 13.7061 86.0289 14.8019C86.0289 15.9123 86.137 16.709 86.3533 17.192C86.6696 17.9084 87.2885 18.2665 88.2098 18.2665C89.116 18.2665 89.7348 17.8938 90.0663 17.1484C90.2674 16.6645 90.3679 15.8823 90.3679 14.8019C90.3679 13.7215 90.2674 12.9461 90.0663 12.4758C89.7357 11.7313 89.1169 11.3586 88.2098 11.3577ZM93.6191 9.25232L97.6405 20.3721H99.442L103.463 9.25232H101.131L98.5627 17.0382H98.5198L95.9502 9.25232H93.6191ZM110.095 20.3721V19.3847C109.648 20.131 108.743 20.5042 107.379 20.5042C106.176 20.5042 105.22 20.175 104.511 19.5168C103.83 18.903 103.49 18.0986 103.49 17.1035C103.49 16.1675 103.793 15.4003 104.397 14.802C105.044 14.1428 105.929 13.8137 107.052 13.8146H110.095V12.6516C110.095 12.1259 109.923 11.7568 109.577 11.5444C109.232 11.3319 108.657 11.227 107.851 11.227C106.814 11.227 106.124 11.5121 105.779 12.0823L104.051 10.7436C104.814 9.66406 106.044 9.1243 107.742 9.1243C110.781 9.1243 112.3 10.345 112.3 12.7864V20.3748L110.095 20.3721ZM110.095 16.4676V15.6504H107.462C106.195 15.6504 105.562 16.0962 105.563 16.9878C105.563 17.9229 106.254 18.391 107.635 18.3919C108.555 18.3919 109.152 18.3111 109.426 18.1495C109.873 17.9062 110.096 17.3455 110.095 16.4676ZM114.111 9.25207V20.3718H116.315V13.7476C116.315 13.0031 116.517 12.4184 116.92 11.9935C117.124 11.7817 117.37 11.6157 117.641 11.5061C117.912 11.3966 118.203 11.346 118.495 11.3575C118.783 11.3485 119.071 11.401 119.338 11.5117C119.606 11.6225 119.848 11.7889 120.048 12.0003C120.451 12.4252 120.653 13.0099 120.653 13.7544V20.3745H122.854V12.9836C122.854 11.7997 122.456 10.8418 121.659 10.1101C120.99 9.46875 120.102 9.11543 119.182 9.12406C117.965 9.12406 117.009 9.56167 116.314 10.4369V9.25207H114.111ZM125.13 9.25221V5.87476H127.332V9.25221H128.929V10.9627H127.332V17.4317C127.332 17.9873 127.591 18.2651 128.108 18.2651H128.929V20.3706H127.785C126.993 20.3706 126.352 20.1295 125.864 19.6474C125.376 19.1653 125.132 18.4926 125.13 17.6291V10.9559H124.029V9.25221H125.13ZM136.313 19.3847V20.3721L138.518 20.3748V12.7864C138.518 10.345 136.999 9.1243 133.96 9.1243C132.263 9.1243 131.032 9.66406 130.269 10.7436L131.995 12.0823C132.341 11.5121 133.032 11.227 134.068 11.227C134.873 11.2261 135.448 11.3319 135.794 11.5444C136.14 11.7568 136.313 12.1259 136.313 12.6516V13.8146H133.269C132.147 13.8137 131.262 14.1428 130.613 14.802C130.009 15.4003 129.707 16.1675 129.707 17.1035C129.707 18.0986 130.048 18.903 130.729 19.5168C131.439 20.175 132.395 20.5042 133.597 20.5042C134.961 20.5042 135.866 20.131 136.313 19.3847ZM136.313 15.6504V16.4676C136.312 17.3455 136.089 17.9062 135.644 18.1495C135.37 18.3111 134.772 18.3919 133.852 18.3919C132.47 18.391 131.78 17.9229 131.78 16.9878C131.78 16.0962 132.413 15.6504 133.679 15.6504H136.313ZM146.502 20.3504V19.2091C146.151 19.6205 145.717 19.9494 145.228 20.1731C144.74 20.3967 144.21 20.5097 143.674 20.5043C142.436 20.5043 141.472 20.0503 140.781 19.1424C140.365 18.5976 140.113 17.9103 140.025 17.0805C139.982 16.7591 139.961 16.0064 139.961 14.8225C139.961 13.6231 139.982 12.87 140.025 12.5632C140.115 11.7142 140.367 11.0197 140.781 10.4795C141.472 9.57156 142.436 9.1176 143.674 9.1176C144.738 9.1176 145.681 9.55612 146.502 10.4332V9.24834H148.703V20.1052C148.703 21.6986 148.228 22.9339 147.278 23.8109C146.415 24.6008 145.307 24.9957 143.954 24.9957C142.501 24.9957 141.235 24.3743 140.155 23.1313L141.86 21.749C142.522 22.4218 143.237 22.7582 144.005 22.7582C144.753 22.7582 145.357 22.5462 145.817 22.1222C146.277 21.6982 146.506 21.1076 146.502 20.3504ZM142.163 14.8239C142.148 15.4151 142.173 16.0066 142.238 16.5943C142.29 16.8922 142.412 17.1728 142.595 17.4114C142.802 17.6781 143.066 17.8936 143.367 18.0418C143.668 18.19 143.998 18.267 144.333 18.267C144.667 18.267 144.997 18.19 145.298 18.0418C145.599 17.8936 145.863 17.6781 146.071 17.4114C146.253 17.1727 146.375 16.8921 146.426 16.5943C146.492 16.0067 146.517 15.4151 146.502 14.8239C146.518 14.2231 146.492 13.622 146.426 13.0248C146.375 12.727 146.253 12.4464 146.071 12.2077C145.863 11.941 145.599 11.7255 145.298 11.5773C144.997 11.4292 144.667 11.3522 144.333 11.3522C143.998 11.3522 143.668 11.4292 143.367 11.5773C143.066 11.7255 142.802 11.941 142.595 12.2077C142.412 12.4463 142.29 12.7269 142.238 13.0248C142.172 13.622 142.147 14.2231 142.163 14.8239ZM152.183 15.6611H159.003L159.012 13.8185C159.012 12.4303 158.566 11.2899 157.672 10.3975C157.253 9.98108 156.757 9.65404 156.212 9.43558C155.667 9.21713 155.085 9.11168 154.499 9.12546C153.274 9.12456 152.259 9.54084 151.455 10.3743C150.472 11.3694 149.98 12.8611 149.98 14.8494C149.98 16.9258 150.513 18.4389 151.578 19.3886C152.399 20.1349 153.485 20.508 154.837 20.508C156.449 20.5071 157.766 19.9075 158.787 18.709L157.191 17.3267C156.888 17.6668 156.518 17.9384 156.105 18.1238C155.692 18.3091 155.245 18.4041 154.794 18.4026C154.017 18.4017 153.387 18.1638 152.905 17.689C152.424 17.2141 152.183 16.5382 152.183 15.6611ZM156.802 13.8185H152.183V13.8144C152.197 12.9964 152.42 12.3622 152.852 11.9119C153.063 11.6882 153.318 11.5121 153.601 11.3948C153.884 11.2775 154.187 11.2217 154.492 11.2309C154.796 11.2212 155.098 11.2768 155.379 11.3942C155.66 11.5115 155.913 11.688 156.122 11.9119C156.546 12.3658 156.773 13.0014 156.802 13.8185Z" fill="#171717"/>
</g>
<defs>
<clipPath id="clip0_233_423">
<rect width="160" height="25" fill="white"/>
</clipPath>
</defs>
</svg>
