<svg width="136" height="24" viewBox="0 0 136 24" fill="none" xmlns="http://www.w3.org/2000/svg">
<g clip-path="url(#clip0_233_482)">
<path d="M104.23 19.2874H96.4119C96.7019 20.2921 98.0018 20.7281 98.9089 20.7281C99.9428 20.7427 100.952 20.4093 101.78 19.7803L103.828 22.1026C102.421 23.3613 100.598 24.0379 98.7218 23.9983C95.1868 23.9983 92.1758 22.2258 92.1758 18.093C92.1758 13.9603 95.374 12.1214 98.4133 12.1214C102.397 12.1119 105.184 14.8039 104.23 19.2874ZM100.489 16.5764C100.489 16.0309 100.275 15.5077 99.8949 15.122C99.5144 14.7362 98.9981 14.5195 98.4601 14.5195C97.9218 14.5195 97.4055 14.7362 97.025 15.122C96.6445 15.5077 96.4307 16.0309 96.4307 16.5764H100.489Z" fill="#171717"/>
<path d="M78.321 7.29692C78.6776 7.34245 79.0135 7.4911 79.2888 7.72509C79.5643 7.95909 79.7672 8.26854 79.8736 8.6164C79.9799 8.96426 79.9854 9.33582 79.8888 9.68666C79.7925 10.0375 79.5983 10.3527 79.3298 10.5947C79.0611 10.8367 78.7295 10.9951 78.3746 11.051C78.0196 11.107 77.6559 11.0581 77.3276 10.9102C76.9993 10.7623 76.72 10.5217 76.5231 10.2171C76.3259 9.91251 76.2198 9.55686 76.2168 9.19267C76.2222 8.92472 76.2818 8.66077 76.3925 8.41738C76.5032 8.17402 76.6623 7.95646 76.8601 7.77842C77.0575 7.60037 77.2893 7.46571 77.5409 7.38282C77.7922 7.29996 78.058 7.2707 78.321 7.29692Z" fill="#171717"/>
<path d="M80.4064 12.3014H76.2168V23.4675H80.4064V12.3014Z" fill="#171717"/>
<path d="M12.0542 12.3965C11.0899 11.4956 9.82137 11.0037 8.50998 11.0221C5.98505 11.0221 4.33914 12.5482 4.33914 15.6288C4.33914 17.6573 5.38654 20.1502 8.50998 20.1502C9.56477 20.182 10.6055 19.8985 11.5025 19.335V17.316H7.57481V13.8373H15.1403V20.8232C14.2051 22.8232 11.4651 23.9038 8.47255 23.9038C2.32855 23.9038 0 19.7426 0 15.6288C0 11.515 2.70262 7.29693 8.49126 7.29693C9.62937 7.23952 10.766 7.43743 11.8199 7.87655C12.8739 8.31567 13.8192 8.98516 14.5885 9.83726L12.0542 12.3965Z" fill="#171717"/>
<path d="M29.1495 17.9414C29.1495 21.9889 25.9794 23.7425 22.9027 23.7425C19.826 23.7425 16.6465 21.9889 16.6465 17.9414C16.6465 13.894 19.7325 12.1119 22.9027 12.1119C26.0729 12.1119 29.1495 13.9034 29.1495 17.9414ZM25.1658 17.9414C25.1658 17.333 24.9274 16.7496 24.503 16.3194C24.0786 15.8892 23.5029 15.6475 22.9027 15.6475C22.3025 15.6475 21.7269 15.8892 21.3025 16.3194C20.8781 16.7496 20.6396 17.333 20.6396 17.9414C20.6396 18.5498 20.8781 19.1332 21.3025 19.5634C21.7269 19.9936 22.3025 20.2353 22.9027 20.2353C23.5029 20.2353 24.0786 19.9936 24.503 19.5634C24.9274 19.1332 25.1658 18.5498 25.1658 17.9414Z" fill="#171717"/>
<path d="M42.8488 17.9415C42.8488 21.989 39.6786 23.7426 36.602 23.7426C33.5251 23.7426 30.3457 21.989 30.3457 17.9415C30.3457 13.8941 33.4316 12.1121 36.602 12.1121C39.7722 12.1121 42.8488 13.9036 42.8488 17.9415ZM38.865 17.9415C38.865 17.3332 38.6265 16.7497 38.2022 16.3195C37.7776 15.8893 37.202 15.6477 36.602 15.6477C36.0017 15.6477 35.4261 15.8893 35.0015 16.3195C34.5772 16.7497 34.3387 17.3332 34.3387 17.9415C34.3387 18.5499 34.5772 19.1334 35.0015 19.5636C35.4261 19.9937 36.0017 20.2354 36.602 20.2354C37.202 20.2354 37.7776 19.9937 38.2022 19.5636C38.6265 19.1334 38.865 18.5499 38.865 17.9415Z" fill="#171717"/>
<path d="M52.4291 7.74219H56.5156V23.4865H52.8779L52.7003 22.2922C52.2365 22.7818 51.6713 23.1608 51.0454 23.4018C50.4196 23.6428 49.7485 23.7397 49.0813 23.6856C45.8736 23.4865 44.0781 21.4391 44.0781 17.9319C44.0781 14.4248 46.2008 12.1119 49.3993 12.1119C49.9604 12.0671 50.5243 12.1512 51.049 12.358C51.5734 12.5648 52.0453 12.889 52.4291 13.3063V7.74219ZM48.1366 17.9225C48.1051 18.2314 48.1383 18.5436 48.234 18.8386C48.33 19.1335 48.4864 19.4046 48.6932 19.6338C48.8999 19.8631 49.1523 20.0454 49.4336 20.1686C49.7148 20.2919 50.0186 20.3534 50.3249 20.349C50.6203 20.3479 50.9127 20.2867 51.1844 20.169C51.4559 20.0513 51.7015 19.8795 51.9066 19.6638C52.1114 19.4482 52.2716 19.1929 52.3774 18.9134C52.4832 18.6338 52.5327 18.3355 52.5227 18.0362C52.5578 17.7192 52.5276 17.3983 52.4337 17.0938C52.3402 16.7893 52.1851 16.5078 51.9784 16.2672C51.7719 16.0266 51.5182 15.8322 51.2337 15.6961C50.9489 15.5601 50.6396 15.4854 50.3249 15.4769C50.0178 15.4753 49.7134 15.5393 49.4322 15.6647C49.1509 15.7901 48.8991 15.9741 48.6926 16.2048C48.4862 16.4355 48.33 16.7077 48.234 17.0036C48.1383 17.2996 48.1051 17.6126 48.1366 17.9225Z" fill="#171717"/>
<path d="M69.1421 23.4863V17.5431H63.5313V23.4863H59.1641V7.77039H63.5498V13.742H69.1609V7.77039H73.5001V23.4863H69.1421Z" fill="#171717"/>
<path d="M86.4197 12.368L86.6628 13.5908C86.9286 13.1207 87.3173 12.734 87.7857 12.4731C88.2543 12.2123 88.7847 12.0874 89.3187 12.1121C89.8537 12.1023 90.3849 12.2032 90.8802 12.4085C91.3755 12.6139 91.824 12.9194 92.1989 13.3064L90.6093 16.2828C90.3563 16.0515 90.0612 15.873 89.7403 15.7575C89.4193 15.642 89.079 15.5918 88.739 15.6098C88.4741 15.599 88.2102 15.6472 87.9657 15.7509C87.7212 15.8547 87.5022 16.0114 87.3238 16.2102C87.1456 16.409 87.0124 16.645 86.9337 16.9015C86.8551 17.158 86.8328 17.4289 86.8685 17.6951V23.4867H82.7539V12.368H86.4197Z" fill="#171717"/>
<path d="M135.945 0.0076424C135.935 0.00261337 135.924 0 135.913 0C135.901 0 135.89 0.00261337 135.88 0.0076424H112.865C112.843 0.0076424 112.822 0.0166302 112.806 0.0326289C112.79 0.0486275 112.781 0.0703262 112.781 0.0929516V18.3776C112.781 18.3948 112.786 18.4117 112.796 18.4255C112.806 18.4393 112.821 18.4491 112.837 18.4534C112.851 18.4628 112.868 18.4678 112.884 18.4678C112.901 18.4678 112.917 18.4628 112.931 18.4534C114.156 16.6999 116.204 13.7804 118.055 13.9131C119.907 14.0458 121.151 15.6856 122.189 17.0032C122.539 17.4565 122.923 17.8812 123.339 18.2733C123.638 18.549 124.029 18.6982 124.433 18.6904C124.694 18.6855 124.953 18.6408 125.2 18.5577C128.585 17.4108 134.122 8.90826 135.926 0.0739941C135.935 0.0652222 135.94 0.0546342 135.944 0.0430997C135.947 0.0315651 135.947 0.0194133 135.945 0.0076424Z" fill="#171717"/>
<path d="M119.596 20.6429C118.409 18.9272 117.548 18.1594 116.791 18.1594C114.92 18.1594 113.602 21.496 112.957 23.0979C112.921 23.1979 112.88 23.296 112.835 23.3917C112.826 23.4194 112.826 23.4494 112.835 23.4771C112.859 23.4857 112.886 23.4857 112.91 23.4771H122.402C122.421 23.476 122.439 23.4691 122.454 23.4572C122.469 23.4454 122.48 23.4291 122.486 23.4107C122.494 23.3963 122.498 23.3799 122.498 23.3633C122.498 23.3467 122.494 23.3303 122.486 23.3159C121.373 22.6065 120.395 21.7012 119.596 20.6429Z" fill="#171717"/>
<path d="M135.906 16.4439C135.892 16.4355 135.876 16.4312 135.859 16.4312C135.843 16.4312 135.827 16.4355 135.812 16.4439C133.007 19.8562 130.463 22.1312 128.153 23.2876C128.145 23.302 128.141 23.3183 128.141 23.335C128.141 23.3516 128.145 23.3679 128.153 23.3824C128.156 23.4008 128.165 23.4177 128.178 23.4299C128.192 23.4422 128.21 23.4489 128.228 23.4487H135.915C135.938 23.4487 135.959 23.4397 135.975 23.4237C135.99 23.4077 135.999 23.386 135.999 23.3634V16.5292C135.997 16.5057 135.986 16.484 135.969 16.4682C135.951 16.4524 135.929 16.4438 135.906 16.4439Z" fill="#171717"/>
</g>
<defs>
<clipPath id="clip0_233_482">
<rect width="136" height="24" fill="white"/>
</clipPath>
</defs>
</svg>
