<svg width="224" height="96" viewBox="0 0 224 96" fill="none" xmlns="http://www.w3.org/2000/svg">
<path d="M22 30.8638H26.1652V60.2102H40.5623V63.7742H22V30.8638Z" fill="black"/>
<path d="M42.3168 51.6346C42.3168 43.66 47.6843 38.7955 53.2542 38.7955C59.4743 38.7955 62.9832 43.2613 62.9832 50.2298C62.9832 51.0825 62.9341 51.9842 62.8299 52.5854H46.3777C46.6783 57.7504 49.8374 61.0629 54.5057 61.0629C56.8121 61.0629 58.7689 60.3084 60.5723 59.1552L62.0263 61.8665C59.9222 63.2223 57.3089 64.3754 54.0026 64.3754C47.4819 64.3754 42.3168 59.6092 42.3168 51.6346ZM59.3701 49.6286C59.3701 44.7151 57.1618 42.0529 53.3524 42.0529C49.9417 42.0529 46.8316 44.8133 46.3286 49.6286H59.3701Z" fill="black"/>
<path d="M71.16 39.3908L71.5097 42.8997H71.663C73.9695 40.5931 76.4785 38.7836 79.8401 38.7836C84.9561 38.7836 87.2625 42.0961 87.2625 48.3162V63.7685H83.1464V48.8744C83.1464 44.3106 81.7417 42.3536 78.5335 42.3536C76.0246 42.3536 74.3192 43.6603 71.8594 46.114V63.7685H67.7432V39.3908H71.16Z" fill="black"/>
<path d="M92.1762 51.6345C92.1762 43.7091 97.1941 38.7954 102.758 38.7954C105.567 38.7954 107.42 39.8505 109.579 41.605L109.377 37.4398V28.0604H113.542V63.7742H110.131L109.782 60.9156H109.628C107.72 62.7744 105.113 64.3754 102.255 64.3754C96.139 64.3754 92.1762 59.7563 92.1762 51.6345ZM109.383 57.554V44.8131C107.328 42.9545 105.469 42.2551 103.463 42.2551C99.5497 42.2551 96.4396 46.0155 96.4396 51.5854C96.4396 57.4068 98.8994 60.9156 103.163 60.9156C105.42 60.9094 107.377 59.8114 109.383 57.554Z" fill="black"/>
<path d="M119.014 57.45C119.014 52.1316 123.577 49.4755 133.963 48.3221C133.963 45.2121 132.957 42.2002 128.945 42.2002C126.135 42.2002 123.577 43.5068 121.67 44.8072L120.063 41.9486C122.32 40.4949 125.731 38.7895 129.644 38.7895C135.613 38.7895 138.122 42.7523 138.122 48.8191V63.7683H134.711L134.362 60.8607H134.208C131.902 62.7683 129.19 64.3695 126.129 64.3695C122.075 64.3756 119.014 61.8176 119.014 57.45ZM133.963 57.7997V51.0274C125.835 52.0274 123.025 54.0393 123.025 57.1494C123.025 59.9098 124.933 61.0631 127.338 61.0631C129.699 61.0631 131.607 59.9098 133.963 57.7997Z" fill="black"/>
<path d="M142.692 68.4366C142.692 66.3816 144.047 64.4248 146.256 62.9158V62.7134C145.054 61.9588 144.097 60.6584 144.097 58.7506C144.097 56.6956 145.501 55.0885 146.753 54.2358V54.0334C145.146 52.7268 143.594 50.3712 143.594 47.4635C143.594 42.1452 147.808 38.7836 152.77 38.7836C154.126 38.7836 155.328 39.0351 156.23 39.3846H164.708V42.5438H159.69C160.843 43.648 161.696 45.5005 161.696 47.5617C161.696 52.7758 157.733 56.0393 152.764 56.0393C151.562 56.0393 150.206 55.7387 149.102 55.1865C148.25 55.9411 147.55 56.7386 147.55 58.0942C147.55 59.6524 148.556 60.7504 151.863 60.7504H156.58C162.248 60.7504 165.106 62.5047 165.106 66.5718C165.106 71.0867 160.34 75.0004 152.764 75.0004C146.808 75.0064 142.692 72.6509 142.692 68.4366ZM161.101 67.1852C161.101 64.9279 159.346 64.1733 156.187 64.1733H151.973C151.022 64.1733 149.869 64.0751 148.814 63.7745C147.059 65.026 146.305 66.486 146.305 67.8907C146.305 70.4977 148.961 72.1541 153.378 72.1541C158.04 72.1478 161.101 69.7432 161.101 67.1852ZM157.942 47.4698C157.942 43.9056 155.635 41.8015 152.777 41.8015C149.918 41.8015 147.612 43.9056 147.612 47.4698C147.612 51.0338 149.967 53.2911 152.777 53.2911C155.586 53.2911 157.942 51.0338 157.942 47.4698Z" fill="black"/>
<path d="M166.07 51.6346C166.07 43.66 171.437 38.7955 177.007 38.7955C183.227 38.7955 186.737 43.2613 186.737 50.2298C186.737 51.0825 186.688 51.9842 186.583 52.5854H170.13C170.431 57.7504 173.59 61.0629 178.258 61.0629C180.565 61.0629 182.522 60.3084 184.325 59.1552L185.779 61.8665C183.675 63.2223 181.062 64.3754 177.755 64.3754C171.235 64.3754 166.07 59.6092 166.07 51.6346ZM183.123 49.6286C183.123 44.7151 180.915 42.0529 177.105 42.0529C173.694 42.0529 170.584 44.8133 170.081 49.6286H183.123Z" fill="black"/>
<path fill-rule="evenodd" clip-rule="evenodd" d="M182.783 23.1822C182.917 24.517 181.948 25.7055 180.613 25.8396C179.278 25.9737 178.09 25.0046 177.956 23.6698C177.821 22.335 178.797 21.1464 180.125 21.0123C181.46 20.8782 182.649 21.8535 182.783 23.1822ZM179.022 29.1796C179.156 30.5144 178.181 31.703 176.852 31.8371C175.523 31.9712 174.335 31.002 174.195 29.6672C174.061 28.3324 175.036 27.1438 176.364 27.0097C177.699 26.8757 178.888 27.8448 179.022 29.1796ZM196.057 44.6004C197.393 44.4664 198.361 43.2779 198.227 41.9429C198.093 40.6081 196.905 39.6391 195.57 39.7731C194.241 39.9073 193.266 41.0958 193.4 42.4306C193.541 43.7653 194.729 44.7346 196.057 44.6004ZM201.988 35.9451C202.122 37.28 201.153 38.4686 199.818 38.6026C198.484 38.7368 197.294 37.7676 197.16 36.4328C197.028 35.0979 198.001 33.9094 199.33 33.7753C200.665 33.6412 201.855 34.6164 201.988 35.9451ZM183.691 31.8674C185.026 31.7333 185.995 30.5448 185.861 29.21C185.727 27.8751 184.538 26.906 183.203 27.0401C181.875 27.1742 180.899 28.3627 181.033 29.6976C181.168 31.0263 182.356 32.0015 183.691 31.8674ZM189.615 23.213C189.749 24.5478 188.774 25.7364 187.445 25.8705C186.116 26.0046 184.928 25.0354 184.788 23.7006C184.654 22.3658 185.629 21.1772 186.958 21.0432C188.293 20.9091 189.481 21.8782 189.615 23.213ZM193.272 38.4016C194.601 38.2676 195.576 37.079 195.442 35.7442C195.308 34.4155 194.12 33.4403 192.785 33.5743C191.449 33.7084 190.481 34.897 190.615 36.2318C190.749 37.5666 191.937 38.5357 193.272 38.4016ZM199.203 29.7464C199.337 31.0813 198.361 32.2698 197.033 32.4039C195.697 32.538 194.509 31.5689 194.375 30.2341C194.241 28.8992 195.211 27.7107 196.545 27.5766C197.88 27.4425 199.068 28.4177 199.203 29.7464ZM190.25 32.0927C191.584 31.9586 192.554 30.77 192.42 29.4352C192.286 28.1065 191.096 27.1313 189.762 27.2654C188.427 27.3995 187.458 28.588 187.592 29.9228C187.727 31.2576 188.915 32.2329 190.25 32.0927ZM196.174 23.4443C196.308 24.7791 195.339 25.9676 194.004 26.1017C192.675 26.2358 191.487 25.2667 191.346 23.9319C191.212 22.597 192.187 21.4085 193.516 21.2744C194.851 21.1403 196.039 22.1155 196.174 23.4443Z" fill="black"/>
</svg>
